 <svg  version="1.0" xmlns="http://www.w3.org/2000/svg"  width="184.000000pt" height="168.000000pt" viewBox="0 0 184.000000 168.000000"  preserveAspectRatio="xMidYMid meet">  <g transform="translate(0.000000,168.000000) scale(0.100000,-0.100000)" fill="#ffffff" stroke="none"> <path d="M565 1617 c-38 -22 -105 -72 -105 -79 0 -4 -11 -19 -25 -34 -14 -15 -45 -61 -70 -102 -44 -73 -45 -76 -45 -164 0 -99 -11 -130 -60 -172 -29 -24 -39 -26 -126 -26 l-94 0 0 -220 0 -220 108 0 c105 0 109 -1 134 -28 56 -60 58 -69 58 -200 0 -89 4 -131 15 -151 14 -27 107 -103 205 -166 40 -26 55 -29 147 -33 l103 -5 0 156 0 155 -32 7 c-108 21 -128 52 -135 213 -2 64 -9 129 -15 144 -10 26 -75 77 -100 79 -7 0 -31 8 -53 18 l-39 17 54 26 c30 15 72 42 94 61 l38 34 9 119 c8 115 15 171 25 205 7 24 72 65 117 73 l37 7 0 149 0 150 -112 -1 c-65 -1 -122 -6 -133 -12z"/> <path d="M950 1480 l0 -150 215 0 215 0 0 -150 0 -150 160 0 160 0 0 216 0 215 -27 36 c-16 19 -57 57 -92 84 l-64 49 -283 0 -284 0 0 -150z"/> <path d="M1040 745 l0 -145 170 0 170 0 0 -135 0 -135 -215 0 -215 0 0 -155 0 -155 245 0 245 0 62 46 c35 26 93 79 131 118 l67 70 0 318 0 318 -330 0 -330 0 0 -145z"/> </g> </svg> 